G04 ===== Begin FILE IDENTIFICATION =====*
G04 File Format:  Gerber RS274X*
G04 ===== End FILE IDENTIFICATION =====*
%FSLAX34Y34*%
%MOIN*%
%SFA1.0000B1.0000*%
%OFA0.0B0.0*%
%ADD10C,0.000025*%
%LNcond*%
%IPPOS*%
%LPD*%
G75*
G36*
G01X15125Y-3813D02*
G01X21875D01*
G01Y6313D01*
G01X15125D01*
G01Y-3813D01*
G37*
G36*
G01X66438Y5500D02*
G01Y115625D01*
G01X33688D01*
G01Y5500D01*
G01X66438D01*
G37*
G36*
G01X78188Y-3000D02*
G01Y5500D01*
G01X21875D01*
G01Y-3000D01*
G01X78188D01*
G37*
G36*
G01X45000Y139250D02*
G01Y132500D01*
G01X55125D01*
G01Y139250D01*
G01X45000D01*
G37*
G36*
G01X45000Y122375D02*
G01Y115625D01*
G01X55125D01*
G01Y122375D01*
G01X45000D01*
G37*
G36*
G01X-107625Y-15625D02*
G01X5000D01*
G01Y18125D01*
G01X-107625D01*
G01Y-15625D01*
G37*
G36*
G01X54875Y167875D02*
G01X45000D01*
G01Y139250D01*
G01X54875D01*
G01Y167875D01*
G37*
G36*
G01X529688Y-101375D02*
G01X547500D01*
G01Y-72750D01*
G01X529688D01*
G01Y-101375D01*
G37*
G36*
G01X498125Y377625D02*
G01Y5500D01*
G01X530875D01*
G01Y377625D01*
G01X498125D01*
G37*
G36*
G01X542688Y-3000D02*
G01Y5500D01*
G01X486375D01*
G01Y-3000D01*
G01X542688D01*
G37*
G36*
G01X551125Y3500D02*
G01X542688D01*
G01Y-1000D01*
G01X551125D01*
G01Y3500D01*
G37*
G36*
G01X551000Y-11125D02*
G01X542563D01*
G01Y-15625D01*
G01X551000D01*
G01Y-11125D01*
G37*
G36*
G01X542688Y-18688D02*
G01Y-10250D01*
G01X540125D01*
G01X534250Y-16188D01*
G01Y-18688D01*
G01X542688D01*
G37*
G36*
G01X534250Y-18688D02*
G01Y-29938D01*
G01X542688D01*
G01Y-18688D01*
G01X534250D01*
G37*
G36*
G01X529438Y-29938D02*
G01Y-40125D01*
G01X547500D01*
G01Y-29938D01*
G01X529438D01*
G37*
G36*
G01X529438Y-62625D02*
G01Y-72750D01*
G01X547500D01*
G01Y-62625D01*
G01X529438D01*
G37*
G36*
G01X518250Y406250D02*
G01X511063D01*
G01Y377625D01*
G01X518250D01*
G01Y406250D01*
G37*
G36*
G01X78188Y-15125D02*
G01X486375D01*
G01Y17625D01*
G01X78188D01*
G01Y-15125D01*
G37*
G36*
G01X578313Y69000D02*
G01X568750D01*
G01Y40375D01*
G01X578313D01*
G01Y69000D01*
G37*
G36*
G01X654063Y-399313D02*
G01Y-390875D01*
G01X597750D01*
G01Y-399313D01*
G01X654063D01*
G37*
G36*
G01X574063Y-400125D02*
G01X580813D01*
G01Y-390000D01*
G01X574063D01*
G01Y-400125D01*
G37*
G36*
G01X591000Y-400125D02*
G01X597750D01*
G01Y-390000D01*
G01X591000D01*
G01Y-400125D01*
G37*
G36*
G01X609500Y-18688D02*
G01Y-390875D01*
G01X642250D01*
G01Y-18688D01*
G01X609500D01*
G37*
G36*
G01X654063Y-423250D02*
G01X766625D01*
G01Y-366938D01*
G01X654063D01*
G01Y-423250D01*
G37*
G36*
G01X569563Y-10938D02*
G01Y-18688D01*
G01X682188D01*
G01Y-10250D01*
G01X625875D01*
G01Y-10938D01*
G01X569563D01*
G37*
G36*
G01X569563Y5875D02*
G01X561125D01*
G01Y-3375D01*
G01X569563D01*
G01Y5875D01*
G37*
G36*
G01X569563Y-11125D02*
G01X561125D01*
G01Y-15625D01*
G01X569563D01*
G01Y-11125D01*
G37*
G36*
G01X568750Y23500D02*
G01Y16750D01*
G01X578875D01*
G01Y23500D01*
G01X568750D01*
G37*
G36*
G01X568750Y40375D02*
G01Y33625D01*
G01X578875D01*
G01Y40375D01*
G01X568750D01*
G37*
G36*
G01X569563Y5500D02*
G01Y-3000D01*
G01X572125D01*
G01X578000Y2938D01*
G01Y5500D01*
G01X569563D01*
G37*
G36*
G01X569563Y16750D02*
G01Y5500D01*
G01X578000D01*
G01Y16750D01*
G01X569563D01*
G37*
G36*
G01X1093188Y241438D02*
G01X1083313D01*
G01Y212813D01*
G01X1093188D01*
G01Y241438D01*
G37*
G36*
G01X1229188Y2438D02*
G01X1133438D01*
G01Y-31375D01*
G01X1229188D01*
G01Y2438D01*
G37*
G36*
G01X1083313Y212813D02*
G01Y206063D01*
G01X1093438D01*
G01Y212813D01*
G01X1083313D01*
G37*
G36*
G01X1083313Y195938D02*
G01Y189188D01*
G01X1093438D01*
G01Y195938D01*
G01X1083313D01*
G37*
G36*
G01X1116563Y-18688D02*
G01Y-10250D01*
G01X1060250D01*
G01Y-18688D01*
G01X1116563D01*
G37*
G36*
G01X1105000Y-10250D02*
G01Y189188D01*
G01X1071750D01*
G01Y-10250D01*
G01X1105000D01*
G37*
G36*
G01X1123313Y-9438D02*
G01X1116563D01*
G01Y-19563D01*
G01X1123313D01*
G01Y-9438D01*
G37*
G36*
G01X682188Y-30875D02*
G01X1060250D01*
G01Y1875D01*
G01X682188D01*
G01Y-30875D01*
G37*
G36*
G01X545500Y-390000D02*
G01Y-399188D01*
G01X574063D01*
G01Y-390000D01*
G01X545500D01*
G37*
G36*
G01X1230500Y-60000D02*
G01X1104813D01*
G01Y-48125D01*
G01X1088813D01*
G01Y-59438D01*
G01X670875D01*
G01Y-338313D01*
G01X795250D01*
G01Y-451813D01*
G01X625438D01*
G01Y-428750D01*
G01X545500D01*
G01Y-361375D01*
G01X580875D01*
G01Y-47313D01*
G01X576063D01*
G01Y-101375D01*
G01X500875D01*
G01Y-43750D01*
G01X49625D01*
G01Y-32438D01*
G01X33625D01*
G01Y-44250D01*
G01X-109625D01*
G01Y-517938D01*
G01X1230500D01*
G01Y-60000D01*
G37*
G36*
G01X-109625Y46750D02*
G01X5063D01*
G01Y144250D01*
G01X16375D01*
G01Y167875D01*
G01X83750D01*
G01Y144250D01*
G01X95063D01*
G01Y46250D01*
G01X469563D01*
G01Y406250D01*
G01X559500D01*
G01Y69000D01*
G01X607500D01*
G01Y18375D01*
G01X653563D01*
G01Y30500D01*
G01X1043188D01*
G01Y217813D01*
G01X1054688D01*
G01Y241438D01*
G01X1122063D01*
G01Y217813D01*
G01X1133625D01*
G01Y31000D01*
G01X1230500D01*
G01Y494688D01*
G01X-109625D01*
G01Y46750D01*
G37*
M02*

